# xmcd
#
# Track frame offsets:
#	150
#	12960
#	25232
#	35115
#	46697
#	59089
#	69725
#	80625
#	93782
#	105087
#
# Disc length: 1520 seconds
#
# Revision: 0
# Processed by: cddbd v1.5.1PL2 Copyright (c) Steve Scherf et al.
# Submitted via: dBpowerAMP V4.0
#
DISCID=7905ee0a
DTITLE=Eddy Arnold - All American Country
DYEAR=2004
DGENRE=Country
TTITLE0=Each Minute Seems A Million Years
TTITLE1=I'll Hold You In My Heart (Till I Can Hold You In My Arms)
TTITLE2=I Wanna Play House With You
TTITLE3=Bouquet Of Roses
TTITLE4=Chained To A Memory
TTITLE5=Older And Bolder
TTITLE6=Cuddle Buggin' Baby
TTITLE7=Many Tears Ago
TTITLE8=Mama, Come Get Your Baby Boy
TTITLE9=Hep Cat Baby
EXTD=
EXTT0=
EXTT1=
EXTT2=
EXTT3=
EXTT4=
EXTT5=
EXTT6=
EXTT7=
EXTT8=
EXTT9=
PLAYORDER=
